#!OML:ASF H:\Terrain\Patient Classification 1\Walking\liu\liu.ASF
:FULLY-SPECIFIED
:DEGREES
146
root 12.937560 23.913149 -24.510750 9.500805 12.596491 5.661420
lowerback -10.053570 -4.995075 -6.721035
upperback -1.793805 -6.269430 3.254445
thorax 4.497360 -3.208200 6.549120
lowerneck -28.724400 -8.765745 -20.828251
upperneck 26.162102 -10.363859 19.418850
head 14.451839 -4.188960 8.816040
rclavicle 0.000000 0.000000
rhumerus -72.421494 6.071010 -122.372849
rradius 43.524452
rwrist -23.219700
rhand -43.024803 -34.010399
rfingers 10.687531
rthumb -3.068550 -78.965256
lclavicle 0.000000 0.000000
lhumerus -53.166901 -1.589670 136.285507
lradius 28.331400
lwrist -16.900949
lhand -16.068300 -33.838200
lfingers 10.687531
lthumb 22.946701 10.283175
rfemur -61.701153 3.130605 23.193001
rtibia 59.181599
rfoot -9.614385 -5.393055
rtoes -24.734100
lfemur 41.700752 7.965915 -27.727200
ltibia 0.000000
lfoot 10.147680 -1.792140
ltoes -25.726200
147
root 12.908070 23.967150 -24.270750 9.597810 13.073296 5.252190
lowerback -9.694964 -5.093475 -6.146535
upperback -2.021805 -6.457455 3.349470
thorax 4.047015 -3.282570 6.332700
lowerneck -28.971752 -8.797890 -20.647800
upperneck 26.409451 -10.412325 19.244699
head 14.576385 -4.209045 8.719440
rclavicle -0.000000 0.000000
rhumerus -72.393448 6.230205 -122.375404
rradius 43.003952
rwrist -21.778500
rhand -41.838001 -33.905098
rfingers 10.687531
rthumb -1.922385 -78.868950
lclavicle -0.000000 0.000000
lhumerus -54.048752 0.613199 135.185394
lradius 27.142799
lwrist -16.584900
lhand -15.820200 -34.101753
lfingers 10.687531
lthumb 23.185499 10.001265
rfemur -60.874203 2.639085 24.045599
rtibia 59.428047
rfoot -10.417006 -4.831875
rtoes -25.262100
lfemur 41.890350 7.991070 -26.932499
ltibia 0.000000
lfoot 13.119795 -0.774902
ltoes -25.131748
148
root 12.868471 24.021149 -24.039299 9.606765 13.514984 4.303260
lowerback -9.469891 -5.037690 -5.163675
upperback -2.023740 -6.462915 3.618045
thorax 3.869325 -3.275070 6.072434
lowerneck -29.294548 -8.929740 -20.676001
upperneck 26.121750 -10.554960 19.400700
head 14.564850 -4.249155 8.749290
rclavicle -0.000000 -0.000000
rhumerus -72.299400 6.205709 -122.117096
rradius 42.903751
rwrist -20.651100
rhand -41.384399 -34.364700
rfingers 10.687531
rthumb -1.484269 -79.330948
lclavicle -0.000000 -0.000000
lhumerus -54.495903 1.853925 134.438995
lradius 26.227951
lwrist -16.376699
lhand -15.497999 -33.862503
lfingers 10.687531
lthumb 23.495850 10.216351
rfemur -60.010048 2.413335 25.445099
rtibia 59.480247
rfoot -10.971450 -4.424805
rtoes -25.059452
lfemur 38.763000 8.349390 -25.384201
ltibia 6.337500
lfoot 13.655459 -0.234366
ltoes -22.598549
149
root 12.823620 24.081751 -23.810101 9.746475 13.680676 3.525675
lowerback -9.604755 -4.942470 -4.406010
upperback -1.871895 -6.388875 3.806745
thorax 4.054305 -3.238245 5.838045
lowerneck -29.954849 -9.073215 -20.597401
upperneck 25.706251 -10.696770 19.593901
head 14.567865 -4.265940 8.769210
rclavicle 0.000000 -0.000000
rhumerus -71.617348 5.445945 -121.223099
rradius 42.893402
rwrist -18.854401
rhand -39.670799 -32.890350
rfingers 10.687531
rthumb 0.170805 -77.859901
lclavicle 0.000000 -0.000000
lhumerus -54.961349 3.239625 133.404449
lradius 26.054249
lwrist -17.445749
lhand -11.759430 -31.260448
lfingers 10.687531
lthumb 27.094650 12.511335
rfemur -59.165100 2.460255 26.589449
rtibia 59.258549
rfoot -11.457825 -4.057425
rtoes -23.273399
lfemur 32.597401 9.243840 -23.959200
ltibia 18.410999
lfoot 11.794830 -0.609462
ltoes -21.824850
